<?xml version="1.0" standalone="no"?><svg xmlns="http://www.w3.org/2000/svg" viewBox="0 0 1440 320"><path fill="#2196f3" fill-opacity="1" d="M0,160L30,170.7C60,181,120,203,180,181.3C240,160,300,96,360,90.7C420,85,480,139,540,165.3C600,192,660,192,720,197.3C780,203,840,213,900,181.3C960,149,1020,75,1080,69.3C1140,64,1200,128,1260,176C1320,224,1380,256,1410,272L1440,288L1440,320L1410,320C1380,320,1320,320,1260,320C1200,320,1140,320,1080,320C1020,320,960,320,900,320C840,320,780,320,720,320C660,320,600,320,540,320C480,320,420,320,360,320C300,320,240,320,180,320C120,320,60,320,30,320L0,320Z"></path></svg>