<?xml version="1.0" standalone="no"?>
<!DOCTYPE svg PUBLIC "-//W3C//DTD SVG 20010904//EN"
 "http://www.w3.org/TR/2001/REC-SVG-20010904/DTD/svg10.dtd">
<svg version="1.0" xmlns="http://www.w3.org/2000/svg"
 width="100.000000pt" height="100.000000pt" viewBox="0 0 100.000000 100.000000"
 preserveAspectRatio="xMidYMid meet">

<g transform="translate(0.000000,100.000000) scale(0.100000,-0.100000)"
fill="#fff" stroke="none">
<path d="M411 944 c-175 -47 -313 -199 -344 -378 -38 -225 118 -457 344 -511
164 -38 315 4 430 120 63 63 75 83 61 97 -8 8 -30 -8 -74 -54 -38 -39 -85 -75
-120 -92 -256 -124 -553 27 -601 307 -35 208 106 416 318 472 33 8 80 15 106
15 66 0 165 -34 221 -75 94 -69 157 -205 143 -311 -14 -114 -107 -239 -197
-266 -96 -29 -95 25 6 278 42 104 74 195 71 202 -8 22 -25 13 -42 -23 l-16
-34 -34 34 c-83 85 -223 68 -329 -42 -92 -94 -136 -243 -100 -337 46 -119 201
-164 291 -84 19 16 35 25 35 19 0 -7 11 -23 25 -36 92 -93 307 90 330 280 23
183 -123 380 -315 424 -62 14 -145 12 -209 -5z m224 -228 c15 -10 33 -34 42
-54 14 -35 14 -38 -34 -159 -54 -139 -95 -202 -146 -226 -75 -36 -161 -7 -198
65 -76 149 98 410 263 395 26 -2 59 -12 73 -21z"/>
</g>
</svg>
